<svg id="visual" viewBox="0 0 900 600" width="900" height="600" xmlns="http://www.w3.org/2000/svg" xmlns:xlink="http://www.w3.org/1999/xlink" version="1.1"><rect x="0" y="0" width="900" height="600" fill="#e4b7c1"></rect><path d="M0 281L21.5 289.2C43 297.3 86 313.7 128.8 302.7C171.7 291.7 214.3 253.3 257.2 259.5C300 265.7 343 316.3 385.8 342.2C428.7 368 471.3 369 514.2 355C557 341 600 312 642.8 311.7C685.7 311.3 728.3 339.7 771.2 354.3C814 369 857 370 878.5 370.5L900 371L900 601L878.5 601C857 601 814 601 771.2 601C728.3 601 685.7 601 642.8 601C600 601 557 601 514.2 601C471.3 601 428.7 601 385.8 601C343 601 300 601 257.2 601C214.3 601 171.7 601 128.8 601C86 601 43 601 21.5 601L0 601Z" fill="#391824" stroke-linecap="round" stroke-linejoin="miter"></path></svg>